<?xml version="1.0" encoding="UTF-8" standalone="no"?>
<!-- Created with Inkscape (http://www.inkscape.org/) -->

<svg
   xmlns:dc="http://purl.org/dc/elements/1.1/"
   xmlns:cc="http://creativecommons.org/ns#"
   xmlns:rdf="http://www.w3.org/1999/02/22-rdf-syntax-ns#"
   xmlns:svg="http://www.w3.org/2000/svg"
   xmlns="http://www.w3.org/2000/svg"
   xmlns:sodipodi="http://sodipodi.sourceforge.net/DTD/sodipodi-0.dtd"
   xmlns:inkscape="http://www.inkscape.org/namespaces/inkscape"
   width="102.7593mm"
   height="20.155523mm"
   viewBox="0 0 102.7593 20.155523"
   version="1.1"
   id="svg4876"
   inkscape:version="0.92.5 (2060ec1f9f, 2020-04-08)"
   sodipodi:docname="reflow-logo.svg">
  <defs
     id="defs4870" />
  <sodipodi:namedview
     id="base"
     pagecolor="#ffffff"
     bordercolor="#666666"
     borderopacity="1.0"
     inkscape:pageopacity="0.0"
     inkscape:pageshadow="2"
     inkscape:zoom="2.8"
     inkscape:cx="194.55225"
     inkscape:cy="-1.4823066"
     inkscape:document-units="mm"
     inkscape:current-layer="layer1"
     showgrid="false"
     inkscape:window-width="1920"
     inkscape:window-height="986"
     inkscape:window-x="-11"
     inkscape:window-y="-11"
     inkscape:window-maximized="1" />
  <metadata
     id="metadata4873">
    <rdf:RDF>
      <cc:Work
         rdf:about="">
        <dc:format>image/svg+xml</dc:format>
        <dc:type
           rdf:resource="http://purl.org/dc/dcmitype/StillImage" />
        <dc:title></dc:title>
      </cc:Work>
    </rdf:RDF>
  </metadata>
  <g
     inkscape:label="Layer 1"
     inkscape:groupmode="layer"
     id="layer1"
     transform="translate(-55.965587,-56.356762)">
    <g
       id="g4854"
       transform="translate(39.39382,36.309103)">
      <path
         id="path4814"
         style="color:#000000;font-style:normal;font-variant:normal;font-weight:normal;font-stretch:normal;font-size:medium;line-height:normal;font-family:sans-serif;font-variant-ligatures:normal;font-variant-position:normal;font-variant-caps:normal;font-variant-numeric:normal;font-variant-alternates:normal;font-feature-settings:normal;text-indent:0;text-align:start;text-decoration:none;text-decoration-line:none;text-decoration-style:solid;text-decoration-color:#000000;letter-spacing:normal;word-spacing:normal;text-transform:none;writing-mode:lr-tb;direction:ltr;text-orientation:mixed;dominant-baseline:auto;baseline-shift:baseline;text-anchor:start;white-space:normal;shape-padding:0;clip-rule:nonzero;display:inline;overflow:visible;visibility:visible;opacity:1;isolation:auto;mix-blend-mode:normal;color-interpolation:sRGB;color-interpolation-filters:linearRGB;solid-color:#000000;solid-opacity:1;vector-effect:none;fill:#000000;fill-opacity:1;fill-rule:nonzero;stroke:none;stroke-width:4.0999999;stroke-linecap:butt;stroke-linejoin:miter;stroke-miterlimit:4;stroke-dasharray:none;stroke-dashoffset:0;stroke-opacity:1;color-rendering:auto;image-rendering:auto;shape-rendering:auto;text-rendering:auto;enable-background:accumulate"
         d="m 109.51337,22.71299 c -1.17557,-0.0645 -2.73801,0.01422 -4.28711,0.591797 -1.57438,0.587004 -2.65625,1.817456 -3.38671,3.101563 -0.73047,1.284106 -1.20181,2.690387 -1.65235,4.117187 -1.456324,4.611964 -2.072264,7.490235 -2.072264,7.490235 l 4.009764,0.855468 c 0,0 0.56302,-2.647225 1.97266,-7.111328 0.42812,-1.355795 0.85501,-2.533718 1.30469,-3.324219 0.44967,-0.7905 0.8297,-1.12749 1.25781,-1.287109 1.45246,-0.54155 3.95117,-0.154297 3.95117,-0.154297 l 0.86719,-4.005859 c 0,0 -0.78928,-0.208942 -1.96485,-0.273438 z m -25.423522,3.239942 3.658696,13.89063 h 4.849312 l 2.33164,-9.54981 2.34405,9.54981 h 4.849314 l 2.72335,-11.311453 c -1.24028,-0.166007 -0.41392,-0.363551 -0.41547,-1.614894 6.1e-4,-0.236878 -0.0308,-0.482974 -0.0796,-0.728719 l -1.93404,-0.08331 -3.295634,9.323146 -2.33164,-9.4754 h -3.70831 l -2.344042,9.57461 -2.33164,-9.57461 z m 30.241002,-5.905273 a 5,5 0 0 0 -5.00022,5.00021 5,5 0 0 0 5.00022,4.9997 5,5 0 0 0 5.00022,-4.9997 5,5 0 0 0 -5.00022,-5.00021 z m 0,2.50011 a 2.5,2.5 0 0 1 2.50011,2.5001 2.5,2.5 0 0 1 -2.50011,2.50011 2.5,2.5 0 0 1 -2.50011,-2.50011 2.5,2.5 0 0 1 2.50011,-2.5001 z M 21.571991,20.819122 a 5,5 0 0 0 -5.000224,5.00021 5,5 0 0 0 5.000224,4.9997 5,5 0 0 0 5.00022,-4.9997 5,5 0 0 0 -5.00022,-5.00021 z m 0,2.50011 a 2.5,2.5 0 0 1 2.50011,2.5001 2.5,2.5 0 0 1 -2.50011,2.50011 2.5,2.5 0 0 1 -2.50011,-2.50011 2.5,2.5 0 0 1 2.50011,-2.5001 z m 52.905826,2.298795 c -2.397786,0 -4.274677,0.644916 -5.630664,1.934766 -1.347719,1.28984 -2.021581,3.075782 -2.021581,5.357812 0,2.282031 0.673862,4.067974 2.021581,5.357813 1.355987,1.289841 3.232878,1.934765 5.630664,1.934765 2.389521,0 4.254005,-0.644924 5.593458,-1.934765 1.347719,-1.289839 2.021581,-3.075782 2.021581,-5.357813 0,-2.28203 -0.673862,-4.067972 -2.021581,-5.357812 -1.339453,-1.28985 -3.203937,-1.934766 -5.593458,-1.934766 z m 0,3.175 c 0.967388,0 1.707393,0.355542 2.220021,1.066602 0.512633,0.7028 0.768945,1.719786 0.768945,3.050976 0,1.33118 -0.256312,2.35231 -0.768945,3.06338 -0.512628,0.7028 -1.252633,1.054198 -2.220021,1.054198 -0.983919,0 -1.736333,-0.351398 -2.257227,-1.054198 -0.512632,-0.71107 -0.768945,-1.7322 -0.768945,-3.06338 0,-1.33119 0.256313,-2.348176 0.768945,-3.050976 0.520894,-0.71106 1.273308,-1.066602 2.257227,-1.066602 z m -36.016406,-3.175 c -2.397786,0 -4.282943,0.649058 -5.655469,1.947168 -1.364257,1.29811 -2.046385,3.079911 -2.046385,5.34541 0,2.306831 0.694531,4.101036 2.083594,5.382617 1.397331,1.2733 3.352765,1.909961 5.866307,1.909961 1.050065,0 2.10013,-0.103359 3.150195,-0.310057 1.050065,-0.19844 2.10013,-0.496089 3.150196,-0.892969 V 35.57711 c -1.033529,0.56224 -2.042253,0.98392 -3.026172,1.265039 -0.975651,0.272849 -1.93063,0.409276 -2.86494,0.409276 -1.157552,0 -2.058789,-0.260448 -2.703711,-0.781346 -0.644922,-0.520901 -1.021128,-1.302253 -1.128615,-2.344044 h 10.380763 v -1.265039 c 0,-2.19935 -0.657323,-3.956346 -1.971974,-5.270996 -1.30638,-1.31464 -3.050974,-1.971973 -5.233789,-1.971973 z m -0.02479,2.951758 c 0.79375,0 1.434539,0.260448 1.922364,0.781348 0.496094,0.51263 0.744141,1.190624 0.744141,2.033985 h -5.767091 c 0.132291,-0.909501 0.467156,-1.604044 1.004591,-2.083595 0.537435,-0.48783 1.236099,-0.731738 2.095995,-0.731738 z M 28.316507,25.618072 c -1.033528,0 -1.922362,0.21084 -2.666502,0.63252 -0.735873,0.41341 -1.389063,1.07487 -1.959571,1.98438 v -1.1374 a 2.5,2.5 0 0 1 -2.22002,1.35495 2.5,2.5 0 0 1 -2.220019,-1.35237 v 12.74341 h 4.440039 v -6.39961 c 0,-1.36426 0.305925,-2.41019 0.917774,-3.13779 0.620117,-0.73588 1.500682,-1.10381 2.641698,-1.10381 0.388606,0 0.77308,0.0455 1.153419,0.13642 0.388607,0.0827 0.777213,0.21498 1.16582,0.39688 l -0.0124,-4.01836 c -0.33073,-0.0413 -0.582912,-0.0661 -0.756542,-0.0744 -0.173633,-0.0165 -0.334865,-0.0248 -0.483693,-0.0248 z M 54.758304,20.54551 c -1.769401,0 -3.075781,0.363812 -3.919141,1.091412 -0.843359,0.71933 -1.265039,1.83555 -1.265039,3.34863 v 0.96738 h -2.207617 v 3.175 h 2.207617 v 10.71563 h 4.440039 v -10.71563 h 3.48506 v -3.175 h -3.48506 v -0.96738 c 0,-0.56224 0.124024,-0.95498 0.37207,-1.17822 0.248047,-0.23151 0.686263,-0.34727 1.314649,-0.34727 h 3.398242 v 16.3835 h 4.477247 V 20.54551 Z"
         inkscape:connector-curvature="0" />
    </g>
  </g>
</svg>
